# Blender v3.5.0 OBJ File: ''
# www.blender.org
mtllib float_L_arm.mtl
o 立方体_立方体.002
v 0.017564 -0.075902 0.615804
v -1.125902 -1.967564 0.615804
v -1.125902 -1.967564 -0.615804
v 0.017564 -0.075902 -0.615804
v -1.917564 -1.024098 -0.615804
v -0.274098 0.867564 -0.615804
v -1.917564 -1.024098 0.615804
v -0.274098 0.867564 0.615804
vt 0.896119 0.786687
vt 0.861694 0.786687
vt 0.861694 0.839632
vt 0.896119 0.839632
vt 0.861694 0.892578
vt 0.896119 0.892578
vt 0.861694 0.945524
vt 0.861694 0.998469
vt 0.896119 0.998469
vt 0.827269 0.892578
vt 0.827269 0.945524
vt 0.930543 0.892578
vt 0.896119 0.945524
vt 0.930543 0.945524
vn 0.8558 -0.5173 -0.0000
vn -0.0000 0.0000 -1.0000
vn -0.7549 0.6558 0.0000
vn 0.0000 -0.0000 1.0000
vn -0.7660 -0.6428 0.0000
vn 0.9554 0.2953 -0.0000
usemtl マテリアル.001
s 1
f 1/1/1 2/2/1 3/3/1
f 4/4/2 3/3/2 5/5/2
f 6/6/3 5/5/3 7/7/3
f 7/7/4 2/8/4 1/9/4
f 5/5/5 3/10/5 2/11/5
f 4/12/6 6/6/6 8/13/6
f 1/1/1 3/3/1 4/4/1
f 4/4/2 5/5/2 6/6/2
f 6/6/3 7/7/3 8/13/3
f 7/7/4 1/9/4 8/13/4
f 5/5/5 2/11/5 7/7/5
f 4/12/6 8/13/6 1/14/6
