# Blender 3.5.0
# www.blender.org
mtllib playerMagnet.mtl
o 磁石
v 0.000000 -0.034794 -0.146877
v 0.000000 0.159790 -0.146877
v -0.011682 -0.034794 -0.147973
v -0.011682 0.159790 -0.147973
v -0.022914 -0.034794 -0.151219
v -0.022914 0.159790 -0.151219
v -0.033266 -0.034794 -0.156491
v -0.033266 0.159790 -0.156491
v -0.042340 -0.034794 -0.163585
v -0.042340 0.159790 -0.163585
v -0.049786 -0.034794 -0.172229
v -0.049786 0.159790 -0.172229
v -0.055320 -0.034794 -0.182092
v -0.055320 0.159790 -0.182092
v -0.058727 -0.034794 -0.192793
v -0.058727 0.159790 -0.192793
v -0.059877 -0.034794 -0.203922
v -0.059877 0.159790 -0.203922
v -0.058727 -0.034794 -0.215051
v -0.058727 0.159790 -0.215051
v -0.055320 -0.034794 -0.225752
v -0.055320 0.159790 -0.225752
v -0.049786 -0.034794 -0.235614
v -0.049786 0.159790 -0.235614
v -0.042340 -0.034794 -0.244259
v -0.042340 0.159790 -0.244259
v -0.033266 -0.034794 -0.251353
v -0.033266 0.159790 -0.251353
v -0.022914 -0.034794 -0.256624
v -0.022914 0.159790 -0.256624
v -0.011682 -0.034794 -0.259870
v -0.011682 0.159790 -0.259870
v 0.000000 -0.034794 -0.260967
v 0.000000 0.159790 -0.260967
v 0.011682 -0.034794 -0.259870
v 0.011682 0.159790 -0.259870
v 0.022914 -0.034794 -0.256624
v 0.022914 0.159790 -0.256624
v 0.033266 -0.034794 -0.251353
v 0.033266 0.159790 -0.251353
v 0.042340 -0.034794 -0.244259
v 0.042340 0.159790 -0.244259
v 0.049786 -0.034794 -0.235614
v 0.049786 0.159790 -0.235614
v 0.055320 -0.034794 -0.225752
v 0.055320 0.159790 -0.225752
v 0.058727 -0.034794 -0.215051
v 0.058727 0.159790 -0.215051
v 0.059877 -0.034794 -0.203922
v 0.059877 0.159790 -0.203922
v 0.058727 -0.034794 -0.192793
v 0.058727 0.159790 -0.192793
v 0.055320 -0.034794 -0.182092
v 0.055320 0.159790 -0.182092
v 0.049786 -0.034794 -0.172229
v 0.049786 0.159790 -0.172229
v 0.042340 -0.034794 -0.163585
v 0.042340 0.159790 -0.163585
v 0.033266 -0.034794 -0.156491
v 0.033266 0.159790 -0.156491
v 0.022914 -0.034794 -0.151219
v 0.022914 0.159790 -0.151219
v 0.011682 -0.034794 -0.147973
v 0.011682 0.159790 -0.147973
v -0.004927 0.396110 -0.093686
v 0.146323 0.991405 -0.093686
v -0.004927 0.396110 -0.296650
v 0.146323 0.991405 -0.296650
v -0.002793 0.137942 -0.093686
v 0.404500 0.991405 -0.093686
v -0.002793 0.137942 -0.296650
v 0.404500 0.991405 -0.296650
v 0.146323 0.595689 -0.093686
v 0.146323 0.595689 -0.296650
v 0.404500 0.595689 -0.296650
v 0.404500 0.595689 -0.093686
v 0.146323 0.793547 -0.093686
v 0.146323 0.793547 -0.296650
v 0.404500 0.793547 -0.296650
v 0.404500 0.793547 -0.093686
v 0.119860 0.436448 -0.296650
v 0.348764 0.317039 -0.296650
v 0.348764 0.317039 -0.093686
v 0.119860 0.436448 -0.093686
v 0.049837 0.400948 -0.296650
v 0.191324 0.184992 -0.296650
v 0.191324 0.184992 -0.093686
v 0.049837 0.400948 -0.093686
v 0.148027 0.517669 -0.093686
v 0.148027 0.517669 -0.296650
v 0.402795 0.475850 -0.296650
v 0.402795 0.475850 -0.093686
v 0.020286 0.396992 -0.296650
v 0.072083 0.144063 -0.296650
v 0.072083 0.144063 -0.093686
v 0.020286 0.396992 -0.093686
v 0.086448 0.415248 -0.093686
v 0.086448 0.415248 -0.296650
v 0.283648 0.248611 -0.296650
v 0.283648 0.248611 -0.093686
v 0.142570 0.473533 -0.296650
v 0.387966 0.393304 -0.296650
v 0.387966 0.393304 -0.093686
v 0.142570 0.473533 -0.093686
v -0.000276 0.396110 -0.296650
v -0.151525 0.991405 -0.296650
v -0.000276 0.396110 -0.093686
v -0.151525 0.991405 -0.093686
v -0.002409 0.137942 -0.296650
v -0.409703 0.991405 -0.296650
v -0.002409 0.137942 -0.093686
v -0.409703 0.991405 -0.093686
v -0.151525 0.595689 -0.296650
v -0.151525 0.595689 -0.093686
v -0.409703 0.595689 -0.093686
v -0.409703 0.595689 -0.296650
v -0.151525 0.793547 -0.296650
v -0.151525 0.793547 -0.093686
v -0.409703 0.793547 -0.093686
v -0.409703 0.793547 -0.296650
v -0.125062 0.436448 -0.093686
v -0.353967 0.317039 -0.093686
v -0.353967 0.317039 -0.296650
v -0.125062 0.436448 -0.296650
v -0.055039 0.400948 -0.093686
v -0.196526 0.184992 -0.093686
v -0.196526 0.184992 -0.296650
v -0.055039 0.400948 -0.296650
v -0.153230 0.517669 -0.296650
v -0.153230 0.517669 -0.093686
v -0.407998 0.475850 -0.093686
v -0.407998 0.475850 -0.296650
v -0.025488 0.396992 -0.093686
v -0.077285 0.144063 -0.093686
v -0.077285 0.144063 -0.296650
v -0.025488 0.396992 -0.296650
v -0.091650 0.415248 -0.296650
v -0.091650 0.415248 -0.093686
v -0.288850 0.248611 -0.093686
v -0.288850 0.248611 -0.296650
v -0.147773 0.473533 -0.093686
v -0.393168 0.393304 -0.093686
v -0.393168 0.393304 -0.296650
v -0.147773 0.473533 -0.296650
vn -0.0934 -0.0000 0.9956
vn -0.2776 -0.0000 0.9607
vn -0.4538 -0.0000 0.8911
vn -0.6159 -0.0000 0.7878
vn -0.7577 -0.0000 0.6527
vn -0.8721 -0.0000 0.4893
vn -0.9529 -0.0000 0.3034
vn -0.9947 -0.0000 0.1028
vn -0.9947 -0.0000 -0.1028
vn -0.9529 -0.0000 -0.3034
vn -0.8721 -0.0000 -0.4894
vn -0.7577 -0.0000 -0.6526
vn -0.6159 -0.0000 -0.7878
vn -0.4537 -0.0000 -0.8911
vn -0.2776 -0.0000 -0.9607
vn -0.0935 -0.0000 -0.9956
vn 0.0935 -0.0000 -0.9956
vn 0.2776 -0.0000 -0.9607
vn 0.4537 -0.0000 -0.8911
vn 0.6159 -0.0000 -0.7878
vn 0.7577 -0.0000 -0.6526
vn 0.8721 -0.0000 -0.4894
vn 0.9529 -0.0000 -0.3034
vn 0.9947 -0.0000 -0.1028
vn 0.9947 -0.0000 0.1028
vn 0.9529 -0.0000 0.3034
vn 0.8721 -0.0000 0.4893
vn 0.7577 -0.0000 0.6527
vn 0.6159 -0.0000 0.7878
vn 0.4538 -0.0000 0.8911
vn -0.0000 1.0000 -0.0000
vn 0.2776 -0.0000 0.9607
vn 0.0934 -0.0000 0.9956
vn -0.0000 -1.0000 -0.0000
vn -1.0000 -0.0000 -0.0000
vn -0.0000 -0.0000 -1.0000
vn 1.0000 -0.0000 -0.0000
vn -0.0000 -0.0000 1.0000
vn -1.0000 -0.0083 -0.0000
vn 0.9999 -0.0142 -0.0000
vn -0.9998 -0.0218 -0.0000
vn -0.5358 0.8444 -0.0000
vn 0.7244 -0.6894 -0.0000
vn 0.3247 -0.9458 -0.0000
vn -0.1327 0.9912 -0.0000
vn -0.9924 0.1227 -0.0000
vn 0.9842 -0.1768 -0.0000
vn -0.0350 0.9994 -0.0000
vn 0.0815 -0.9967 -0.0000
vn 0.5674 -0.8234 -0.0000
vn -0.3638 0.9315 -0.0000
vn 0.8894 -0.4572 -0.0000
vn -0.8528 0.5222 -0.0000
vn 1.0000 -0.0083 -0.0000
vn -0.9999 -0.0142 -0.0000
vn 0.9998 -0.0218 -0.0000
vn 0.5358 0.8444 -0.0000
vn -0.7244 -0.6894 -0.0000
vn -0.3247 -0.9458 -0.0000
vn 0.1327 0.9912 -0.0000
vn 0.9924 0.1227 -0.0000
vn -0.9842 -0.1768 -0.0000
vn 0.0350 0.9994 -0.0000
vn -0.0815 -0.9967 -0.0000
vn -0.5674 -0.8234 -0.0000
vn 0.3638 0.9315 -0.0000
vn -0.8894 -0.4572 -0.0000
vn 0.8528 0.5223 -0.0000
vt 0.307551 0.674570
vt 0.554480 0.515637
vt 0.554364 0.423874
vt 0.307551 0.759347
vt 0.299402 0.674570
vt 0.556101 0.507487
vt 0.299401 0.759347
vt 0.554364 0.432183
vt 0.291724 0.674570
vt 0.559281 0.499810
vt 0.291724 0.759347
vt 0.555985 0.440333
vt 0.706562 0.143721
vt 0.284815 0.674570
vt 0.563897 0.492901
vt 0.284815 0.759347
vt 0.706562 0.228497
vt 0.559165 0.448010
vt 0.700687 0.143721
vt 0.569773 0.487025
vt 0.700687 0.228497
vt 0.563782 0.454920
vt 0.693777 0.143721
vt 0.576682 0.482409
vt 0.693777 0.228497
vt 0.569657 0.460795
vt 0.686100 0.143721
vt 0.584359 0.479229
vt 0.686100 0.228497
vt 0.576567 0.465412
vt 0.677950 0.143721
vt 0.592509 0.477608
vt 0.677950 0.228497
vt 0.584244 0.468592
vt 0.669641 0.143721
vt 0.600819 0.477608
vt 0.669641 0.228497
vt 0.592394 0.470213
vt 0.661491 0.143721
vt 0.608969 0.479229
vt 0.661491 0.228497
vt 0.600703 0.470213
vt 0.653814 0.143721
vt 0.616646 0.482409
vt 0.653814 0.228497
vt 0.608853 0.468592
vt 0.646905 0.143721
vt 0.623555 0.487025
vt 0.646905 0.228497
vt 0.616530 0.465412
vt 0.451236 0.666257
vt 0.641029 0.143721
vt 0.629431 0.492901
vt 0.641029 0.228497
vt 0.451236 0.751034
vt 0.623439 0.460795
vt 0.445360 0.666257
vt 0.634047 0.499810
vt 0.445360 0.751034
vt 0.629315 0.454920
vt 0.438451 0.666257
vt 0.637227 0.507487
vt 0.438451 0.751034
vt 0.633932 0.448010
vt 0.430774 0.666257
vt 0.638848 0.515637
vt 0.430774 0.751034
vt 0.637111 0.440333
vt 0.422624 0.666257
vt 0.638848 0.523947
vt 0.422624 0.751034
vt 0.638732 0.432183
vt 0.414314 0.666257
vt 0.637227 0.532097
vt 0.414314 0.751034
vt 0.638732 0.423874
vt 0.406164 0.666257
vt 0.634047 0.539774
vt 0.406164 0.751034
vt 0.637111 0.415724
vt 0.398487 0.666257
vt 0.629431 0.546683
vt 0.398487 0.751034
vt 0.633932 0.408047
vt 0.786084 0.023541
vt 0.391578 0.666257
vt 0.623555 0.552558
vt 0.391578 0.751034
vt 0.786084 0.108317
vt 0.629315 0.401138
vt 0.779175 0.023541
vt 0.616646 0.557175
vt 0.779175 0.108317
vt 0.623439 0.395262
vt 0.771498 0.023541
vt 0.608969 0.560355
vt 0.771498 0.108317
vt 0.616530 0.390646
vt 0.763348 0.023541
vt 0.600819 0.561976
vt 0.763348 0.108317
vt 0.608853 0.387466
vt 0.755039 0.023541
vt 0.592509 0.561976
vt 0.755039 0.108317
vt 0.600703 0.385844
vt 0.746889 0.023541
vt 0.584359 0.560355
vt 0.746889 0.108317
vt 0.592394 0.385844
vt 0.739212 0.023541
vt 0.576682 0.557175
vt 0.739212 0.108317
vt 0.584244 0.387466
vt 0.344473 0.674570
vt 0.732303 0.023541
vt 0.569773 0.552558
vt 0.732303 0.108317
vt 0.344473 0.759347
vt 0.576567 0.390646
vt 0.338597 0.674570
vt 0.563897 0.546683
vt 0.338597 0.759347
vt 0.569657 0.395262
vt 0.331688 0.674570
vt 0.559281 0.539774
vt 0.331688 0.759347
vt 0.563782 0.401138
vt 0.324011 0.674570
vt 0.556101 0.532097
vt 0.559165 0.408047
vt 0.324011 0.759347
vt 0.315861 0.674570
vt 0.554480 0.523947
vt 0.555985 0.415724
vt 0.315861 0.759347
vt 0.811146 0.228497
vt 0.315448 0.279734
vt 0.349375 0.667322
vt 0.186882 0.759761
vt 0.377936 0.228470
vt 0.641029 0.228497
vt 0.349375 0.582545
vt 0.169969 0.279734
vt 0.811146 0.143721
vt 0.186882 0.674984
vt 0.107481 0.228470
vt 0.641029 0.143721
vt 0.376954 0.667322
vt 0.102106 0.279734
vt 0.287784 0.279734
vt 0.668087 0.023541
vt 0.375788 0.143721
vt 0.557141 0.228497
vt 0.186882 0.279734
vt 0.376954 0.582545
vt 0.197632 0.279734
vt 0.557141 0.143721
vt 0.109628 0.143721
vt 0.668087 0.108317
vt 0.229211 0.759761
vt 0.335561 0.229544
vt 0.149856 0.229544
vt 0.229211 0.674984
vt 0.710090 0.108317
vt 0.152003 0.144794
vt 0.333414 0.144794
vt 0.710090 0.023541
vt 0.356749 0.229007
vt 0.208047 0.759761
vt 0.128668 0.229007
vt 0.208047 0.674984
vt 0.689089 0.108317
vt 0.130816 0.144258
vt 0.354601 0.144258
vt 0.689089 0.023541
vt 0.166687 0.238662
vt 0.769976 0.143721
vt 0.186882 0.396327
vt 0.181378 0.163846
vt 0.304039 0.163846
vt 0.102106 0.396327
vt 0.769976 0.228497
vt 0.318729 0.238662
vt 0.169907 0.261745
vt 0.793277 0.143721
vt 0.186882 0.342737
vt 0.194209 0.215886
vt 0.291208 0.215886
vt 0.102106 0.342737
vt 0.315510 0.261745
vt 0.793277 0.228497
vt 0.237527 0.759761
vt 0.327192 0.229196
vt 0.237527 0.674984
vt 0.158224 0.229196
vt 0.164822 0.145679
vt 0.722886 0.108317
vt 0.722886 0.023541
vt 0.320595 0.145679
vt 0.802940 0.143721
vt 0.170084 0.271456
vt 0.197600 0.255139
vt 0.186882 0.303717
vt 0.102106 0.303717
vt 0.287817 0.255139
vt 0.802940 0.228497
vt 0.315332 0.271456
vt 0.316737 0.249688
vt 0.781160 0.228497
vt 0.168680 0.249688
vt 0.781160 0.143721
vt 0.186882 0.373796
vt 0.188164 0.185407
vt 0.297253 0.185407
vt 0.102106 0.373796
vt 0.242343 0.674984
vt 0.162905 0.231107
vt 0.762023 0.143721
vt 0.732303 0.108317
vt 0.186882 0.410823
vt 0.173537 0.150771
vt 0.732303 0.023541
vt 0.311879 0.150771
vt 0.102106 0.410823
vt 0.242343 0.759761
vt 0.322512 0.231107
vt 0.762023 0.228497
vt 0.805311 0.746899
vt 0.044993 0.279734
vt 0.251442 0.667736
vt 0.706562 0.228497
vt 0.107481 0.228470
vt 0.638368 0.656596
vt 0.251442 0.582959
vt 0.260121 0.279734
vt 0.805311 0.662123
vt 0.706562 0.143721
vt 0.197632 0.228470
vt 0.638368 0.571819
vt 0.279021 0.667736
vt 0.017329 0.279734
vt 0.105333 0.143721
vt 0.554480 0.656596
vt 0.102106 0.279734
vt 0.279021 0.582959
vt 0.287784 0.279734
vt 0.554480 0.571819
vt 0.199780 0.143721
vt 0.554480 0.741372
vt 0.748891 0.228497
vt 0.065106 0.229544
vt 0.240007 0.229544
vt 0.748891 0.143721
vt 0.596483 0.741372
vt 0.242155 0.144794
vt 0.062959 0.144794
vt 0.596483 0.656596
vt 0.086293 0.229007
vt 0.727727 0.228497
vt 0.218820 0.229007
vt 0.727727 0.143721
vt 0.575481 0.741372
vt 0.220967 0.144258
vt 0.084146 0.144258
vt 0.575481 0.656596
vt 0.256839 0.238662
vt 0.764141 0.662123
vt 0.102106 0.396327
vt 0.271530 0.163846
vt 0.033583 0.163846
vt 0.017329 0.396327
vt 0.764141 0.746899
vt 0.048274 0.238662
vt 0.260058 0.261745
vt 0.787442 0.662123
vt 0.102106 0.342737
vt 0.284360 0.215886
vt 0.020753 0.215886
vt 0.017329 0.342737
vt 0.045055 0.261745
vt 0.787442 0.746899
vt 0.757207 0.228497
vt 0.056737 0.229196
vt 0.757207 0.143721
vt 0.248376 0.229196
vt 0.254973 0.145679
vt 0.609279 0.741372
vt 0.609279 0.656596
vt 0.050140 0.145679
vt 0.797105 0.662123
vt 0.260236 0.271456
vt 0.287751 0.255139
vt 0.102106 0.303717
vt 0.017329 0.303717
vt 0.017362 0.255139
vt 0.797105 0.746899
vt 0.044877 0.271456
vt 0.046282 0.249688
vt 0.775325 0.746899
vt 0.258831 0.249688
vt 0.775325 0.662123
vt 0.102106 0.373796
vt 0.278316 0.185407
vt 0.026798 0.185407
vt 0.017329 0.373796
vt 0.762023 0.143721
vt 0.253057 0.231107
vt 0.756188 0.662123
vt 0.618695 0.741372
vt 0.102106 0.410823
vt 0.263689 0.150771
vt 0.618695 0.656596
vt 0.041424 0.150771
vt 0.017329 0.410823
vt 0.762023 0.228497
vt 0.052056 0.231107
vt 0.756188 0.746899
s 0
usemtl マテリアル
f 2/4/1 3/5/1 1/1/1
f 4/7/2 5/9/2 3/5/2
f 6/11/3 7/14/3 5/9/3
f 8/17/4 9/19/4 7/13/4
f 10/21/5 11/23/5 9/19/5
f 12/25/6 13/27/6 11/23/6
f 14/29/7 15/31/7 13/27/7
f 16/33/8 17/35/8 15/31/8
f 18/37/9 19/39/9 17/35/9
f 20/41/10 21/43/10 19/39/10
f 22/45/11 23/47/11 21/43/11
f 24/49/12 25/52/12 23/47/12
f 26/55/13 27/57/13 25/51/13
f 28/59/14 29/61/14 27/57/14
f 30/63/15 31/65/15 29/61/15
f 32/67/16 33/69/16 31/65/16
f 34/71/17 35/73/17 33/69/17
f 36/75/18 37/77/18 35/73/18
f 38/79/19 39/81/19 37/77/19
f 40/83/20 41/86/20 39/81/20
f 42/89/21 43/91/21 41/85/21
f 44/93/22 45/95/22 43/91/22
f 46/97/23 47/99/23 45/95/23
f 48/101/24 49/103/24 47/99/24
f 50/105/25 51/107/25 49/103/25
f 52/109/26 53/111/26 51/107/26
f 54/113/27 55/116/27 53/111/27
f 56/119/28 57/121/28 55/115/28
f 58/123/29 59/125/29 57/121/29
f 60/127/30 61/129/30 59/125/30
f 38/80/31 22/46/31 6/12/31
f 62/132/32 63/133/32 61/129/32
f 64/136/33 1/1/33 63/133/33
f 31/66/34 47/100/34 63/134/34
f 2/4/1 4/7/1 3/5/1
f 4/7/2 6/11/2 5/9/2
f 6/11/3 8/16/3 7/14/3
f 8/17/4 10/21/4 9/19/4
f 10/21/5 12/25/5 11/23/5
f 12/25/6 14/29/6 13/27/6
f 14/29/7 16/33/7 15/31/7
f 16/33/8 18/37/8 17/35/8
f 18/37/9 20/41/9 19/39/9
f 20/41/10 22/45/10 21/43/10
f 22/45/11 24/49/11 23/47/11
f 24/49/12 26/54/12 25/52/12
f 26/55/13 28/59/13 27/57/13
f 28/59/14 30/63/14 29/61/14
f 30/63/15 32/67/15 31/65/15
f 32/67/16 34/71/16 33/69/16
f 34/71/17 36/75/17 35/73/17
f 36/75/18 38/79/18 37/77/18
f 38/79/19 40/83/19 39/81/19
f 40/83/20 42/88/20 41/86/20
f 42/89/21 44/93/21 43/91/21
f 44/93/22 46/97/22 45/95/22
f 46/97/23 48/101/23 47/99/23
f 48/101/24 50/105/24 49/103/24
f 50/105/25 52/109/25 51/107/25
f 52/109/26 54/113/26 53/111/26
f 54/113/27 56/118/27 55/116/27
f 56/119/28 58/123/28 57/121/28
f 58/123/29 60/127/29 59/125/29
f 60/127/30 62/132/30 61/129/30
f 6/12/31 4/8/31 2/3/31
f 2/3/31 64/135/31 6/12/31
f 64/135/31 62/131/31 6/12/31
f 62/131/31 60/128/31 58/124/31
f 58/124/31 56/120/31 54/114/31
f 54/114/31 52/110/31 50/106/31
f 50/106/31 48/102/31 54/114/31
f 48/102/31 46/98/31 54/114/31
f 46/98/31 44/94/31 42/90/31
f 42/90/31 40/84/31 38/80/31
f 38/80/31 36/76/31 30/64/31
f 36/76/31 34/72/31 30/64/31
f 34/72/31 32/68/31 30/64/31
f 30/64/31 28/60/31 26/56/31
f 26/56/31 24/50/31 22/46/31
f 22/46/31 20/42/31 14/30/31
f 20/42/31 18/38/31 14/30/31
f 18/38/31 16/34/31 14/30/31
f 14/30/31 12/26/31 10/22/31
f 10/22/31 8/18/31 6/12/31
f 62/131/31 58/124/31 6/12/31
f 58/124/31 54/114/31 6/12/31
f 46/98/31 42/90/31 54/114/31
f 42/90/31 38/80/31 54/114/31
f 30/64/31 26/56/31 38/80/31
f 26/56/31 22/46/31 38/80/31
f 14/30/31 10/22/31 22/46/31
f 10/22/31 6/12/31 22/46/31
f 6/12/31 54/114/31 38/80/31
f 62/132/32 64/136/32 63/133/32
f 64/136/33 2/4/33 1/1/33
f 63/134/34 1/2/34 3/6/34
f 3/6/34 5/10/34 7/15/34
f 7/15/34 9/20/34 11/24/34
f 11/24/34 13/28/34 15/32/34
f 15/32/34 17/36/34 19/40/34
f 19/40/34 21/44/34 23/48/34
f 23/48/34 25/53/34 27/58/34
f 27/58/34 29/62/34 31/66/34
f 31/66/34 33/70/34 35/74/34
f 35/74/34 37/78/34 39/82/34
f 39/82/34 41/87/34 43/92/34
f 43/92/34 45/96/34 47/100/34
f 47/100/34 49/104/34 51/108/34
f 51/108/34 53/112/34 55/117/34
f 55/117/34 57/122/34 59/126/34
f 59/126/34 61/130/34 63/134/34
f 63/134/34 3/6/34 15/32/34
f 3/6/34 7/15/34 15/32/34
f 7/15/34 11/24/34 15/32/34
f 15/32/34 19/40/34 31/66/34
f 19/40/34 23/48/34 31/66/34
f 23/48/34 27/58/34 31/66/34
f 31/66/34 35/74/34 47/100/34
f 35/74/34 39/82/34 47/100/34
f 39/82/34 43/92/34 47/100/34
f 47/100/34 51/108/34 63/134/34
f 51/108/34 55/117/34 63/134/34
f 55/117/34 59/126/34 63/134/34
f 63/134/34 15/32/34 31/66/34
f 66/140/35 78/172/35 77/170/35
f 68/147/36 79/174/36 78/171/36
f 72/160/37 80/176/37 79/173/37
f 70/153/38 77/169/38 80/175/38
f 71/156/39 65/139/39 67/143/39
f 68/148/31 70/154/31 72/158/31
f 76/167/38 89/194/38 92/200/38
f 75/165/40 92/199/40 91/198/40
f 90/196/36 75/166/36 91/197/36
f 73/161/41 90/195/41 89/193/41
f 80/175/38 73/162/38 76/167/38
f 79/173/37 76/168/37 75/165/37
f 78/171/36 75/166/36 74/163/36
f 77/170/35 74/164/35 73/161/35
f 84/183/42 98/212/42 97/210/42
f 81/177/36 99/214/36 98/211/36
f 82/179/43 100/216/43 99/213/43
f 100/215/38 84/184/38 97/209/38
f 95/206/38 88/191/38 96/208/38
f 86/187/44 95/205/44 94/204/44
f 85/185/36 94/203/36 93/202/36
f 88/192/45 93/201/45 96/207/45
f 89/193/46 101/217/46 104/226/46
f 90/196/36 102/222/36 101/218/36
f 91/198/47 103/223/47 102/220/47
f 103/224/38 89/194/38 104/227/38
f 96/207/48 67/145/48 65/137/48
f 93/202/36 71/157/36 67/144/36
f 94/204/49 69/150/49 71/155/49
f 69/151/38 96/208/38 65/138/38
f 87/189/38 97/209/38 88/191/38
f 99/213/50 87/190/50 86/187/50
f 98/211/36 86/188/36 85/185/36
f 97/210/51 85/186/51 88/192/51
f 83/181/38 104/227/38 84/184/38
f 102/221/52 83/182/52 82/179/52
f 101/218/36 82/180/36 81/177/36
f 104/228/53 81/178/53 84/183/53
f 66/140/35 68/146/35 78/172/35
f 68/147/36 72/159/36 79/174/36
f 72/160/37 70/152/37 80/176/37
f 70/153/38 66/141/38 77/169/38
f 71/156/39 69/149/39 65/139/39
f 68/148/31 66/142/31 70/154/31
f 76/167/38 73/162/38 89/194/38
f 75/165/40 76/168/40 92/199/40
f 90/196/36 74/163/36 75/166/36
f 73/161/41 74/164/41 90/195/41
f 80/175/38 77/169/38 73/162/38
f 79/173/37 80/176/37 76/168/37
f 78/171/36 79/174/36 75/166/36
f 77/170/35 78/172/35 74/164/35
f 84/183/42 81/178/42 98/212/42
f 81/177/36 82/180/36 99/214/36
f 82/179/43 83/182/43 100/216/43
f 100/215/38 83/181/38 84/184/38
f 95/206/38 87/189/38 88/191/38
f 86/187/44 87/190/44 95/205/44
f 85/185/36 86/188/36 94/203/36
f 88/192/45 85/186/45 93/201/45
f 89/193/46 90/195/46 101/217/46
f 90/196/36 91/197/36 102/222/36
f 91/198/47 92/199/47 103/223/47
f 103/224/38 92/200/38 89/194/38
f 96/207/48 93/201/48 67/145/48
f 93/202/36 94/203/36 71/157/36
f 94/204/49 95/205/49 69/150/49
f 69/151/38 95/206/38 96/208/38
f 87/189/38 100/215/38 97/209/38
f 99/213/50 100/216/50 87/190/50
f 98/211/36 99/214/36 86/188/36
f 97/210/51 98/212/51 85/186/51
f 83/181/38 103/224/38 104/227/38
f 102/221/52 103/225/52 83/182/52
f 101/218/36 102/222/36 82/180/36
f 104/228/53 101/219/53 81/178/53
f 106/232/37 118/262/37 117/260/37
f 108/239/38 119/264/38 118/261/38
f 112/250/35 120/266/35 119/263/35
f 110/243/36 117/259/36 120/265/36
f 111/246/54 105/231/54 107/235/54
f 108/240/31 110/244/31 112/248/31
f 116/257/36 129/284/36 132/290/36
f 115/255/55 132/289/55 131/288/55
f 130/286/38 115/256/38 131/287/38
f 113/251/56 130/285/56 129/283/56
f 120/265/36 113/252/36 116/257/36
f 119/263/35 116/258/35 115/255/35
f 118/261/38 115/256/38 114/253/38
f 117/260/37 114/254/37 113/251/37
f 124/273/57 138/302/57 137/300/57
f 121/267/38 139/304/38 138/301/38
f 122/269/58 140/306/58 139/303/58
f 140/305/36 124/274/36 137/299/36
f 135/296/36 128/281/36 136/298/36
f 126/277/59 135/295/59 134/294/59
f 125/275/38 134/293/38 133/292/38
f 128/282/60 133/291/60 136/297/60
f 129/283/61 141/307/61 144/316/61
f 130/286/38 142/312/38 141/308/38
f 131/288/62 143/313/62 142/310/62
f 143/314/36 129/284/36 144/317/36
f 136/297/63 107/237/63 105/229/63
f 133/292/38 111/247/38 107/236/38
f 134/294/64 109/242/64 111/245/64
f 109/242/36 136/298/36 105/230/36
f 127/279/36 137/299/36 128/281/36
f 139/303/65 127/280/65 126/277/65
f 138/301/38 126/278/38 125/275/38
f 137/300/66 125/276/66 128/282/66
f 123/271/36 144/317/36 124/274/36
f 142/311/67 123/272/67 122/269/67
f 141/308/38 122/270/38 121/267/38
f 144/318/68 121/268/68 124/273/68
f 106/232/37 108/238/37 118/262/37
f 108/239/38 112/249/38 119/264/38
f 112/250/35 110/244/35 120/266/35
f 110/243/36 106/233/36 117/259/36
f 111/246/54 109/241/54 105/231/54
f 108/240/31 106/234/31 110/244/31
f 116/257/36 113/252/36 129/284/36
f 115/255/55 116/258/55 132/289/55
f 130/286/38 114/253/38 115/256/38
f 113/251/56 114/254/56 130/285/56
f 120/265/36 117/259/36 113/252/36
f 119/263/35 120/266/35 116/258/35
f 118/261/38 119/264/38 115/256/38
f 117/260/37 118/262/37 114/254/37
f 124/273/57 121/268/57 138/302/57
f 121/267/38 122/270/38 139/304/38
f 122/269/58 123/272/58 140/306/58
f 140/305/36 123/271/36 124/274/36
f 135/296/36 127/279/36 128/281/36
f 126/277/59 127/280/59 135/295/59
f 125/275/38 126/278/38 134/293/38
f 128/282/60 125/276/60 133/291/60
f 129/283/61 130/285/61 141/307/61
f 130/286/38 131/287/38 142/312/38
f 131/288/62 132/289/62 143/313/62
f 143/314/36 132/290/36 129/284/36
f 136/297/63 133/291/63 107/237/63
f 133/292/38 134/293/38 111/247/38
f 134/294/64 135/295/64 109/242/64
f 109/242/36 135/296/36 136/298/36
f 127/279/36 140/305/36 137/299/36
f 139/303/65 140/306/65 127/280/65
f 138/301/38 139/304/38 126/278/38
f 137/300/66 138/302/66 125/276/66
f 123/271/36 143/314/36 144/317/36
f 142/311/67 143/315/67 123/272/67
f 141/308/38 142/312/38 122/270/38
f 144/318/68 141/309/68 121/268/68
