# Blender v3.5.0 OBJ File: 'testEnemy.blend'
# www.blender.org
mtllib enemy_Body.mtl
o 立方体
v 1.000000 0.000000 -1.000000
v 1.000000 1.000000 -1.000000
v 1.000000 0.000000 1.000000
v 1.000000 1.000000 1.000000
v -1.000000 0.000000 -1.000000
v -1.000000 1.000000 -1.000000
v -1.000000 0.000000 1.000000
v -1.000000 1.000000 1.000000
v 0.500000 2.000000 -0.500000
v 0.500000 2.000000 0.500000
v -0.500000 2.000000 -0.500000
v -0.500000 2.000000 0.500000
vt 0.576236 0.444856
vt 0.304052 0.312404
vt 0.576236 0.312404
vt 0.576236 0.143074
vt 0.304052 0.010622
vt 0.576236 0.010622
vt 0.282807 0.444856
vt 0.010622 0.312404
vt 0.282807 0.312404
vt 0.282807 0.143074
vt 0.010622 0.010622
vt 0.282807 0.010622
vt 0.869666 0.010622
vt 0.597481 0.282807
vt 0.597481 0.010622
vt 0.372098 0.592941
vt 0.304052 0.444856
vt 0.502634 0.842405
vt 0.366542 0.978498
vt 0.366542 0.842405
vt 0.078668 0.291160
vt 0.010622 0.143074
vt 0.372098 0.291160
vt 0.304052 0.143074
vt 0.078668 0.592941
vt 0.010622 0.444856
vt 0.869666 0.282807
vt 0.508190 0.592941
vt 0.502634 0.978498
vt 0.214761 0.291160
vt 0.508190 0.291160
vt 0.214761 0.592941
vn 1.0000 0.0000 0.0000
vn 0.0000 0.0000 1.0000
vn -1.0000 0.0000 0.0000
vn 0.0000 0.0000 -1.0000
vn 0.0000 -1.0000 0.0000
vn 0.8944 0.4472 0.0000
vn 0.0000 1.0000 0.0000
vn 0.0000 0.4472 -0.8944
vn 0.0000 0.4472 0.8944
vn -0.8944 0.4472 0.0000
usemtl マテリアル
s off
f 2/1/1 3/2/1 1/3/1
f 4/4/2 7/5/2 3/6/2
f 8/7/3 5/8/3 7/9/3
f 6/10/4 1/11/4 5/12/4
f 7/13/5 1/14/5 3/15/5
f 2/1/6 10/16/6 4/17/6
f 10/18/7 11/19/7 12/20/7
f 6/10/8 9/21/8 2/22/8
f 4/4/9 12/23/9 8/24/9
f 8/7/10 11/25/10 6/26/10
f 2/1/1 4/17/1 3/2/1
f 4/4/2 8/24/2 7/5/2
f 8/7/3 6/26/3 5/8/3
f 6/10/4 2/22/4 1/11/4
f 7/13/5 5/27/5 1/14/5
f 2/1/6 9/28/6 10/16/6
f 10/18/7 9/29/7 11/19/7
f 6/10/8 11/30/8 9/21/8
f 4/4/9 10/31/9 12/23/9
f 8/7/10 12/32/10 11/25/10
