# Blender v3.5.0 OBJ File: ''
# www.blender.org
mtllib float_R_arm.mtl
o 立方体.001_立方体.003
v 0.082436 -0.075902 0.615804
v 1.225902 -1.967564 -0.615804
v 1.225902 -1.967564 0.615804
v 0.082436 -0.075902 -0.615804
v 2.017564 -1.024098 -0.615804
v 0.374098 0.867564 -0.615804
v 2.017564 -1.024098 0.615804
v 0.374098 0.867564 0.615804
vt 0.903939 0.794188
vt 0.853874 0.843383
vt 0.853874 0.794188
vt 0.903939 0.843383
vt 0.853874 0.892578
vt 0.903939 0.892578
vt 0.853874 0.941773
vt 0.903939 0.990968
vt 0.853874 0.990968
vt 0.803809 0.941773
vt 0.803809 0.892578
vt 0.954003 0.892578
vt 0.903939 0.941773
vt 0.954003 0.941773
vn -0.8558 -0.5173 0.0000
vn -0.0000 0.0000 -1.0000
vn 0.7549 0.6558 -0.0000
vn 0.0000 -0.0000 1.0000
vn 0.7660 -0.6428 -0.0000
vn -0.9554 0.2953 0.0000
usemtl マテリアル.002
s 1
f 1/1/1 2/2/1 3/3/1
f 4/4/2 5/5/2 2/2/2
f 6/6/3 7/7/3 5/5/3
f 7/7/4 1/8/4 3/9/4
f 5/5/5 3/10/5 2/11/5
f 4/12/6 8/13/6 6/6/6
f 1/1/1 4/4/1 2/2/1
f 4/4/2 6/6/2 5/5/2
f 6/6/3 8/13/3 7/7/3
f 7/7/4 8/13/4 1/8/4
f 5/5/5 7/7/5 3/10/5
f 4/12/6 1/14/6 8/13/6
