# Blender v3.5.0 OBJ File: ''
# www.blender.org
mtllib screw.mtl
o Cube
v -0.178610 1.000000 0.182534
v -0.042934 -1.000000 0.043877
v -0.178610 1.000000 -0.182534
v -0.042934 -1.000000 -0.043877
v 0.178610 1.000000 0.182534
v 0.042934 -1.000000 0.043877
v 0.178610 1.000000 -0.182534
v 0.042934 -1.000000 -0.043877
v -0.178610 -0.637792 0.182534
v 0.178610 -0.637792 -0.182534
v -0.178610 -0.637792 -0.182534
v 0.178610 -0.637792 0.182534
v 0.000000 0.979494 1.000000
v 0.000000 1.288993 1.000000
v -0.195090 0.979494 0.980785
v -0.195090 1.288993 0.980785
v -0.382683 0.979494 0.923880
v -0.382683 1.288993 0.923880
v -0.555570 0.979494 0.831470
v -0.555570 1.288993 0.831470
v -0.707107 0.979494 0.707107
v -0.707107 1.288993 0.707107
v -0.831470 0.979494 0.555570
v -0.831470 1.288993 0.555570
v -0.923879 0.979494 0.382683
v -0.923879 1.288993 0.382683
v -0.980785 0.979494 0.195090
v -0.980785 1.288993 0.195090
v -1.000000 0.979494 0.000000
v -1.000000 1.288993 0.000000
v -0.980785 0.979494 -0.195090
v -0.980785 1.288993 -0.195090
v -0.923879 0.979494 -0.382683
v -0.923879 1.288993 -0.382683
v -0.831470 0.979494 -0.555570
v -0.831470 1.288993 -0.555570
v -0.707107 0.979494 -0.707107
v -0.707107 1.288993 -0.707107
v -0.555570 0.979494 -0.831470
v -0.555570 1.288993 -0.831470
v -0.382683 0.979494 -0.923880
v -0.382683 1.288993 -0.923880
v -0.195090 0.979494 -0.980785
v -0.195090 1.288993 -0.980785
v 0.000000 0.979494 -1.000000
v 0.000000 1.288993 -1.000000
v 0.195090 0.979494 -0.980785
v 0.195090 1.288993 -0.980785
v 0.382683 0.979494 -0.923880
v 0.382683 1.288993 -0.923880
v 0.555570 0.979494 -0.831470
v 0.555570 1.288993 -0.831470
v 0.707107 0.979494 -0.707107
v 0.707107 1.288993 -0.707107
v 0.831470 0.979494 -0.555570
v 0.831470 1.288993 -0.555570
v 0.923879 0.979494 -0.382683
v 0.923879 1.288993 -0.382683
v 0.980785 0.979494 -0.195090
v 0.980785 1.288993 -0.195090
v 1.000000 0.979494 0.000000
v 1.000000 1.288993 0.000000
v 0.980785 0.979494 0.195090
v 0.980785 1.288993 0.195090
v 0.923879 0.979494 0.382683
v 0.923879 1.288993 0.382683
v 0.831470 0.979494 0.555570
v 0.831470 1.288993 0.555570
v 0.707107 0.979494 0.707107
v 0.707107 1.288993 0.707107
v 0.555570 0.979494 0.831470
v 0.555570 1.288993 0.831470
v 0.382683 0.979494 0.923880
v 0.382683 1.288993 0.923880
v 0.195090 0.979494 0.980785
v 0.195090 1.288993 0.980785
vt 0.875000 0.500000
vt 0.625000 0.750000
vt 0.625000 0.500000
vt 0.500000 1.000000
vt 0.500000 0.750000
vt 0.625000 0.000000
vt 0.500000 0.250000
vt 0.500000 0.000000
vt 0.375000 0.500000
vt 0.125000 0.750000
vt 0.125000 0.500000
vt 0.500000 0.500000
vt 0.625000 0.250000
vt 0.375000 0.250000
vt 0.375000 0.750000
vt 0.375000 0.000000
vt 0.375000 1.000000
vt 0.000000 0.000000
vt 0.000000 0.000000
vt 0.000000 0.000000
vt 0.000000 0.000000
vt 0.000000 0.000000
vt 0.000000 0.000000
vt 0.000000 0.000000
vt 0.000000 0.000000
vt 0.000000 0.000000
vt 0.000000 0.000000
vt 0.000000 0.000000
vt 0.000000 0.000000
vt 0.000000 0.000000
vt 0.000000 0.000000
vt 0.000000 0.000000
vt 0.000000 0.000000
vt 0.000000 0.000000
vt 0.000000 0.000000
vt 0.000000 0.000000
vt 0.000000 0.000000
vt 0.000000 0.000000
vt 0.000000 0.000000
vt 0.000000 0.000000
vt 0.000000 0.000000
vt 0.000000 0.000000
vt 0.000000 0.000000
vt 0.000000 0.000000
vt 0.000000 0.000000
vt 0.000000 0.000000
vt 0.000000 0.000000
vt 0.000000 0.000000
vt 0.000000 0.000000
vt 0.000000 0.000000
vt 0.000000 0.000000
vt 0.000000 0.000000
vt 0.000000 0.000000
vt 0.000000 0.000000
vt 0.000000 0.000000
vt 0.000000 0.000000
vt 0.000000 0.000000
vt 0.000000 0.000000
vt 0.000000 0.000000
vt 0.000000 0.000000
vt 0.000000 0.000000
vt 0.000000 0.000000
vt 0.000000 0.000000
vt 0.000000 0.000000
vt 0.000000 0.000000
vt 0.000000 0.000000
vt 0.000000 0.000000
vt 0.000000 0.000000
vt 0.000000 0.000000
vt 0.000000 0.000000
vt 0.000000 0.000000
vt 0.000000 0.000000
vt 0.000000 0.000000
vt 0.000000 0.000000
vt 0.000000 0.000000
vt 0.000000 0.000000
vt 0.000000 0.000000
vt 0.000000 0.000000
vt 0.000000 0.000000
vt 0.000000 0.000000
vt 0.000000 0.000000
vt 0.875000 0.750000
vt 0.625000 1.000000
vn 0.0000 1.0000 0.0000
vn 0.0000 0.0000 -1.0000
vn 1.0000 0.0000 0.0000
vn 0.0000 -1.0000 0.0000
vn -1.0000 0.0000 0.0000
vn 0.0000 0.0000 1.0000
vn 0.0000 -0.3575 0.9339
vn -0.9365 -0.3508 0.0000
vn 0.9365 -0.3508 0.0000
vn 0.0000 -0.3575 -0.9339
vn -0.0980 0.0000 0.9952
vn -0.2903 0.0000 0.9569
vn -0.4714 0.0000 0.8819
vn -0.6344 0.0000 0.7730
vn -0.7730 0.0000 0.6344
vn -0.8819 0.0000 0.4714
vn -0.9569 0.0000 0.2903
vn -0.9952 0.0000 0.0980
vn -0.9952 0.0000 -0.0980
vn -0.9569 0.0000 -0.2903
vn -0.8819 0.0000 -0.4714
vn -0.7730 0.0000 -0.6344
vn -0.6344 0.0000 -0.7730
vn -0.4714 0.0000 -0.8819
vn -0.2903 0.0000 -0.9569
vn -0.0980 0.0000 -0.9952
vn 0.0980 0.0000 -0.9952
vn 0.2903 0.0000 -0.9569
vn 0.4714 0.0000 -0.8819
vn 0.6344 0.0000 -0.7730
vn 0.7730 0.0000 -0.6344
vn 0.8819 0.0000 -0.4714
vn 0.9569 0.0000 -0.2903
vn 0.9952 0.0000 -0.0980
vn 0.9952 0.0000 0.0980
vn 0.9569 0.0000 0.2903
vn 0.8819 0.0000 0.4714
vn 0.7730 0.0000 0.6344
vn 0.6344 0.0000 0.7730
vn 0.4714 0.0000 0.8819
vn 0.2903 0.0000 0.9569
vn 0.0980 0.0000 0.9952
usemtl Material
s off
f 5/1/1 3/2/1 1/3/1
f 3/2/2 10/4/2 11/5/2
f 7/6/3 12/7/3 10/8/3
f 2/9/4 8/10/4 6/11/4
f 1/3/5 11/5/5 9/12/5
f 5/13/6 9/12/6 12/7/6
f 12/7/7 2/9/7 6/14/7
f 9/12/8 4/15/8 2/9/8
f 10/8/9 6/14/9 8/16/9
f 11/5/10 8/17/10 4/15/10
f 14/18/11 15/19/11 13/20/11
f 16/21/12 17/22/12 15/19/12
f 18/23/13 19/24/13 17/22/13
f 20/25/14 21/26/14 19/24/14
f 22/27/15 23/28/15 21/26/15
f 24/29/16 25/30/16 23/28/16
f 26/31/17 27/32/17 25/30/17
f 28/33/18 29/34/18 27/32/18
f 30/35/19 31/36/19 29/34/19
f 32/37/20 33/38/20 31/36/20
f 34/39/21 35/40/21 33/38/21
f 36/41/22 37/42/22 35/40/22
f 38/43/23 39/44/23 37/42/23
f 40/45/24 41/46/24 39/44/24
f 42/47/25 43/48/25 41/46/25
f 44/49/26 45/50/26 43/48/26
f 46/51/27 47/52/27 45/50/27
f 48/53/28 49/54/28 47/52/28
f 50/55/29 51/56/29 49/54/29
f 52/57/30 53/58/30 51/56/30
f 54/59/31 55/60/31 53/58/31
f 56/61/32 57/62/32 55/60/32
f 58/63/33 59/64/33 57/62/33
f 60/65/34 61/66/34 59/64/34
f 62/67/35 63/68/35 61/66/35
f 64/69/36 65/70/36 63/68/36
f 66/71/37 67/72/37 65/70/37
f 68/73/38 69/74/38 67/72/38
f 70/75/39 71/76/39 69/74/39
f 72/77/40 73/78/40 71/76/40
f 22/27/1 20/25/1 70/75/1
f 74/79/41 75/80/41 73/78/41
f 76/81/42 13/20/42 75/80/42
f 71/76/4 73/78/4 19/24/4
f 5/1/1 7/82/1 3/2/1
f 3/2/2 7/83/2 10/4/2
f 7/6/3 5/13/3 12/7/3
f 2/9/4 4/15/4 8/10/4
f 1/3/5 3/2/5 11/5/5
f 5/13/6 1/3/6 9/12/6
f 12/7/7 9/12/7 2/9/7
f 9/12/8 11/5/8 4/15/8
f 10/8/9 12/7/9 6/14/9
f 11/5/10 10/4/10 8/17/10
f 14/18/11 16/21/11 15/19/11
f 16/21/12 18/23/12 17/22/12
f 18/23/13 20/25/13 19/24/13
f 20/25/14 22/27/14 21/26/14
f 22/27/15 24/29/15 23/28/15
f 24/29/16 26/31/16 25/30/16
f 26/31/17 28/33/17 27/32/17
f 28/33/18 30/35/18 29/34/18
f 30/35/19 32/37/19 31/36/19
f 32/37/20 34/39/20 33/38/20
f 34/39/21 36/41/21 35/40/21
f 36/41/22 38/43/22 37/42/22
f 38/43/23 40/45/23 39/44/23
f 40/45/24 42/47/24 41/46/24
f 42/47/25 44/49/25 43/48/25
f 44/49/26 46/51/26 45/50/26
f 46/51/27 48/53/27 47/52/27
f 48/53/28 50/55/28 49/54/28
f 50/55/29 52/57/29 51/56/29
f 52/57/30 54/59/30 53/58/30
f 54/59/31 56/61/31 55/60/31
f 56/61/32 58/63/32 57/62/32
f 58/63/33 60/65/33 59/64/33
f 60/65/34 62/67/34 61/66/34
f 62/67/35 64/69/35 63/68/35
f 64/69/36 66/71/36 65/70/36
f 66/71/37 68/73/37 67/72/37
f 68/73/38 70/75/38 69/74/38
f 70/75/39 72/77/39 71/76/39
f 72/77/40 74/79/40 73/78/40
f 18/23/1 16/21/1 74/79/1
f 16/21/1 14/18/1 76/81/1
f 74/79/1 16/21/1 76/81/1
f 74/79/1 72/77/1 18/23/1
f 72/77/1 70/75/1 20/25/1
f 18/23/1 72/77/1 20/25/1
f 70/75/1 68/73/1 22/27/1
f 68/73/1 66/71/1 24/29/1
f 22/27/1 68/73/1 24/29/1
f 66/71/1 64/69/1 28/33/1
f 64/69/1 62/67/1 30/35/1
f 62/67/1 60/65/1 32/37/1
f 60/65/1 58/63/1 34/39/1
f 58/63/1 56/61/1 34/39/1
f 56/61/1 54/59/1 36/41/1
f 34/39/1 56/61/1 36/41/1
f 54/59/1 52/57/1 38/43/1
f 52/57/1 50/55/1 40/45/1
f 38/43/1 52/57/1 40/45/1
f 50/55/1 48/53/1 44/49/1
f 48/53/1 46/51/1 44/49/1
f 44/49/1 42/47/1 50/55/1
f 42/47/1 40/45/1 50/55/1
f 38/43/1 36/41/1 54/59/1
f 34/39/1 32/37/1 60/65/1
f 32/37/1 30/35/1 62/67/1
f 30/35/1 28/33/1 64/69/1
f 28/33/1 26/31/1 66/71/1
f 26/31/1 24/29/1 66/71/1
f 74/79/41 76/81/41 75/80/41
f 76/81/42 14/18/42 13/20/42
f 75/80/4 13/20/4 15/19/4
f 15/19/4 17/22/4 75/80/4
f 17/22/4 19/24/4 73/78/4
f 75/80/4 17/22/4 73/78/4
f 19/24/4 21/26/4 69/74/4
f 21/26/4 23/28/4 67/72/4
f 23/28/4 25/30/4 67/72/4
f 25/30/4 27/32/4 65/70/4
f 67/72/4 25/30/4 65/70/4
f 27/32/4 29/34/4 61/66/4
f 29/34/4 31/36/4 59/64/4
f 31/36/4 33/38/4 59/64/4
f 33/38/4 35/40/4 57/62/4
f 59/64/4 33/38/4 57/62/4
f 35/40/4 37/42/4 53/58/4
f 37/42/4 39/44/4 51/56/4
f 39/44/4 41/46/4 51/56/4
f 41/46/4 43/48/4 49/54/4
f 51/56/4 41/46/4 49/54/4
f 43/48/4 45/50/4 47/52/4
f 47/52/4 49/54/4 43/48/4
f 51/56/4 53/58/4 37/42/4
f 53/58/4 55/60/4 35/40/4
f 55/60/4 57/62/4 35/40/4
f 59/64/4 61/66/4 29/34/4
f 61/66/4 63/68/4 27/32/4
f 63/68/4 65/70/4 27/32/4
f 67/72/4 69/74/4 21/26/4
f 69/74/4 71/76/4 19/24/4
