# Blender v3.5.0 OBJ File: ''
# www.blender.org
mtllib float_Head.mtl
o head_立方体
v -1.000000 3.000000 1.000000
v -1.000000 1.000000 -1.000000
v -1.000000 1.000000 1.000000
v -1.000000 3.000000 -1.000000
v 1.000000 1.000000 -1.000000
v 1.000000 3.000000 -1.000000
v 1.000000 1.000000 1.000000
v 1.000000 3.000000 1.000000
vt 0.243413 1.000000
vt 0.486826 0.755777
vt 0.486826 1.000000
vt 0.000000 1.000000
vt 0.243413 0.755777
vt 0.243413 1.000000
vt 0.486827 1.000000
vt 0.730240 0.755777
vt 0.730240 1.000000
vt 0.732671 0.755777
vt 0.976084 0.511553
vt 0.976084 0.755777
vt 0.732670 0.511553
vt 0.488447 0.755777
vt 0.488447 0.511553
vt 0.488447 0.511553
vt 0.244224 0.755777
vt 0.244224 0.511553
vt 0.243413 0.755777
vt 0.000000 0.755777
vt 0.486827 0.755777
vt 0.732671 0.511553
vt 0.732670 0.755777
vt 0.488447 0.755777
vn -1.0000 -0.0000 0.0000
vn -0.0000 0.0000 -1.0000
vn 1.0000 -0.0000 -0.0000
vn 0.0000 -0.0000 1.0000
vn -0.0000 -1.0000 -0.0000
vn 0.0000 1.0000 0.0000
usemtl マテリアル
s 1
f 1/1/1 2/2/1 3/3/1
f 4/4/2 5/5/2 2/6/2
f 6/7/3 7/8/3 5/9/3
f 8/10/4 3/11/4 7/12/4
f 5/13/5 3/14/5 2/15/5
f 4/16/6 8/17/6 6/18/6
f 1/1/1 4/19/1 2/2/1
f 4/4/2 6/20/2 5/5/2
f 6/7/3 8/21/3 7/8/3
f 8/10/4 1/22/4 3/11/4
f 5/13/5 7/23/5 3/14/5
f 4/16/6 1/24/6 8/17/6
